<svg width="34" height="34" viewBox="0 0 34 34" fill="none" xmlns="http://www.w3.org/2000/svg">
<path d="M12.0468 15.3912H12.0469H16.6191C16.8348 15.3912 17.0414 15.3043 17.1937 15.1499C17.3459 14.9955 17.4313 14.7862 17.4313 14.5681C17.4313 14.3501 17.3459 14.1408 17.1937 13.9864C17.0414 13.832 16.8348 13.7451 16.6191 13.7451H12.0478C11.5986 13.7451 11.2361 14.1149 11.2361 14.5686C11.2361 14.7864 11.3213 14.9954 11.4733 15.1496C11.6252 15.3039 11.8315 15.3909 12.0468 15.3912ZM10.6706 9.69392C10.7327 9.6308 10.8168 9.59535 10.9044 9.59511H10.9052H20.0469C20.1345 9.59511 20.2187 9.63035 20.281 9.69334C20.3433 9.75635 20.3785 9.84199 20.3787 9.93151V23.4049H10.9052C10.723 23.4049 10.5735 23.2541 10.5735 23.0686V9.93233C10.5735 9.84281 10.6085 9.75709 10.6706 9.69392ZM22.0031 14.9049V9.93139C22.0031 8.83717 21.1274 7.95 20.0478 7.95H10.9043C9.82376 7.95 8.95 8.83818 8.95 9.93139V23.0686C8.95 24.1618 9.82471 25.05 10.9043 25.05H23.0948C24.1753 25.05 25.05 24.1618 25.05 23.0677V16.5C25.05 15.6193 24.3457 14.9049 23.4765 14.9049H22.0031ZM23.0957 23.4049H22.0031V16.55H23.4275V23.0677C23.4275 23.1573 23.3924 23.2432 23.33 23.3064C23.2678 23.3695 23.1834 23.4049 23.0957 23.4049ZM12.0478 11.0412C11.5987 11.0412 11.2361 11.4098 11.2361 11.8628V11.8637C11.2361 12.0817 11.3215 12.2908 11.4736 12.4451C11.6258 12.5994 11.8323 12.6863 12.0478 12.6863H15.0948C15.2014 12.6863 15.3071 12.665 15.4056 12.6236C15.5042 12.5822 15.5936 12.5215 15.669 12.4451C15.7443 12.3687 15.804 12.278 15.8448 12.1783C15.8855 12.0785 15.9065 11.9716 15.9065 11.8637C15.9065 11.7558 15.8855 11.6489 15.8448 11.5492C15.804 11.4494 15.7443 11.3588 15.669 11.2823C15.5936 11.2059 15.5042 11.1453 15.4056 11.1039C15.3071 11.0625 15.2014 11.0412 15.0948 11.0412H12.0478Z" fill="white" stroke="white" stroke-width="0.1"/>
</svg>
